<svg xmlns="http://www.w3.org/2000/svg" width="14" height="18" viewBox="0 0 14 18">
  <path fill="#FFF" d="M1246.26515,234.960893 L1249.64,234.960893 L1249.64,236.929553 L1236,236.929553 L1236,234.960893 L1239.39828,234.960893 L1240.40605,234 L1245.25739,234 L1246.26515,234.960893 Z M1239.35141,242.648041 L1241.43725,244.75732 L1239.39828,246.819725 L1240.75759,248.179038 L1242.82,246.140069 L1244.88241,248.179038 L1246.26515,246.819725 L1244.20275,244.75732 L1246.26515,242.648041 L1244.88241,241.265292 L1242.82,243.37457 L1240.75759,241.265292 L1239.35141,242.648041 Z M1236.96089,249.60866 L1236.96089,237.890447 L1248.67911,237.890447 L1248.67911,249.60866 C1248.67911,250.139888 1248.4838,250.6008 1248.0932,250.991409 C1247.70259,251.382018 1247.24168,251.57732 1246.71045,251.57732 L1238.92955,251.57732 C1238.39832,251.57732 1237.93741,251.382018 1237.5468,250.991409 C1237.1562,250.6008 1236.96089,250.139888 1236.96089,249.60866 Z" transform="translate(-1236 -234)"/>
</svg>
