<?xml version="1.0" encoding="UTF-8"?>
<svg width="19px" height="16px" viewBox="0 0 19 16" version="1.1" xmlns="http://www.w3.org/2000/svg" xmlns:xlink="http://www.w3.org/1999/xlink">
    <!-- Generator: Sketch 54.1 (76490) - https://sketchapp.com -->
    <title>Shape</title>
    <desc>Created with Sketch.</desc>
    <g id="Page-2" stroke="none" stroke-width="1" fill="none" fill-rule="evenodd">
        <g id="01_Page_lists" transform="translate(-284.000000, -95.000000)" fill="#012C61" fill-rule="nonzero">
            <g id="Group-27" transform="translate(90.000000, 91.000000)">
                <g id="Group-6">
                    <g id="Group-35">
                        <path d="M207.17939,16.8838606 C207.304555,16.9612869 207.42972,17 207.567385,17 C207.817716,17 208.068047,16.8709267 208.205712,16.625714 C208.768913,15.6705982 209.044286,14.5735194 208.994202,13.4506615 C208.869037,10.3272116 206.303275,7.88784146 203.261849,8.00398085 C201.80999,8.0685175 200.458255,8.7138397 199.456975,9.83674196 C198.455695,10.9467103 197.942533,12.4051854 198.005116,13.9153076 C198.042657,14.8058868 198.267946,15.6577086 198.680984,16.4321484 C198.881231,16.8064343 199.344352,16.9484416 199.707306,16.7290081 C200.07026,16.5225085 200.195425,16.0449285 199.995178,15.6706425 C199.694806,15.1027465 199.5321,14.4961375 199.494516,13.8378814 C199.456975,12.7408026 199.832428,11.682437 200.54588,10.8693284 C201.259331,10.0562197 202.273111,9.60446318 203.336931,9.55281614 C205.53974,9.46245597 207.417135,11.2306804 207.50476,13.5151981 C207.542301,14.3283067 207.342053,15.1285258 206.929016,15.825495 C206.716312,16.1868914 206.828978,16.6644714 207.17939,16.8838606 Z M209.655471,19.5748707 C209.317119,19.2914364 209.278041,18.8019364 209.564407,18.4799063 C210.774676,17.0628233 211.438383,15.2592953 211.438383,13.4042177 C211.438383,9.07568858 207.872648,5.54591273 203.500022,5.54591273 C199.127397,5.54591273 195.561662,9.07573279 195.561662,13.4042177 C195.561662,15.3752155 196.303436,17.2560679 197.630851,18.6988815 C197.917128,19.0209558 197.891091,19.5104558 197.578776,19.7938901 C197.435593,19.9355851 197.24038,20 197.058207,20 C196.849998,20 196.641788,19.9098103 196.485609,19.7423405 C194.884913,18.0031832 194,15.7616606 194,13.4041735 C194,8.21256466 198.255435,4 203.499978,4 C208.74452,4 212.999955,8.21256466 213,13.4041735 C213,15.6328308 212.206151,17.784208 210.761635,19.484681 C210.475313,19.8067554 209.980826,19.8453955 209.655471,19.5748707 Z M203.5,15 C202.671573,15 202,14.3284271 202,13.5 C202,12.6715729 202.671573,12 203.5,12 C204.328427,12 205,12.6715729 205,13.5 C205,14.3284271 204.328427,15 203.5,15 Z" id="Shape"></path>
                    </g>
                </g>
            </g>
        </g>
    </g>
</svg>