<svg xmlns="http://www.w3.org/2000/svg" width="16" height="18" viewBox="0 0 16 18">
  <path fill="#FFF" d="M941.82,248.68 L941.82,239.5 L930.18,239.5 L930.18,248.68 L941.82,248.68 Z M941.82,235.32 C942.273336,235.32 942.666665,235.486665 943,235.82 C943.333335,236.153335 943.5,236.546664 943.5,237 L943.5,248.68 C943.5,249.133336 943.333335,249.519998 943,249.84 C942.666665,250.160002 942.273336,250.32 941.82,250.32 L930.18,250.32 C929.713331,250.32 929.316668,250.160002 928.99,249.84 C928.663332,249.519998 928.5,249.133336 928.5,248.68 L928.5,237 C928.5,236.546664 928.663332,236.153335 928.99,235.82 C929.316668,235.486665 929.713331,235.32 930.18,235.32 L931,235.32 L931,233.68 L932.68,233.68 L932.68,235.32 L939.32,235.32 L939.32,233.68 L941,233.68 L941,235.32 L941.82,235.32 Z M940.18,241.18 L940.18,242.82 L938.5,242.82 L938.5,241.18 L940.18,241.18 Z M936.82,241.18 L936.82,242.82 L935.18,242.82 L935.18,241.18 L936.82,241.18 Z M933.5,241.18 L933.5,242.82 L931.82,242.82 L931.82,241.18 L933.5,241.18 Z" transform="translate(-928 -233)"/>
</svg>
