<?xml version="1.0" encoding="UTF-8"?>
<svg width="25px" height="25px" viewBox="0 0 25 25" version="1.1" xmlns="http://www.w3.org/2000/svg" xmlns:xlink="http://www.w3.org/1999/xlink">
    <!-- Generator: Sketch 55 (78076) - https://sketchapp.com -->
    <title></title>
    <desc>Created with Sketch.</desc>
    <g id="Page-1" stroke="none" stroke-width="1" fill="none" fill-rule="evenodd">
        <g id="Page_On-details_page_search_options" transform="translate(-1235.000000, -22.000000)" fill="#FFFFFF" fill-rule="nonzero">
            <path d="M1253.78005,39.0072115 L1249.27284,34.5 L1253.78005,29.9927885 L1252.00721,28.2199519 L1247.5,32.7271635 L1242.99279,28.2199519 L1241.21995,29.9927885 L1245.72716,34.5 L1241.21995,39.0072115 L1242.99279,40.7800481 L1247.5,36.2728365 L1252.00721,40.7800481 L1253.78005,39.0072115 Z M1247.5,22 C1249.78367,22 1251.89703,22.5709078 1253.84014,23.7127404 C1255.72317,24.7944766 1257.20552,26.2768335 1258.28726,28.1598558 C1259.42909,30.1029745 1260,32.2163347 1260,34.5 C1260,36.7836653 1259.42909,38.8970255 1258.28726,40.8401442 C1257.20552,42.7231665 1255.72317,44.2055234 1253.84014,45.2872596 C1251.89703,46.4290922 1249.78367,47 1247.5,47 C1245.21633,47 1243.10297,46.4290922 1241.15986,45.2872596 C1239.27683,44.1854913 1237.79448,42.6931184 1236.71274,40.8100962 C1235.57091,38.8669775 1235,36.7636331 1235,34.5 C1235,32.2363669 1235.57091,30.1330225 1236.71274,28.1899038 C1237.81451,26.3068816 1239.30688,24.8145087 1241.1899,23.7127404 C1243.13302,22.5709078 1245.23637,22 1247.5,22 Z" id=""></path>
        </g>
    </g>
</svg>