<svg xmlns="http://www.w3.org/2000/svg" width="17" height="20" viewBox="0 0 17 20">
  <path fill="#FFF" d="M1043.82,249.5 L1043.82,237.82 L1034.68,237.82 L1034.68,249.5 L1043.82,249.5 Z M1043.82,236.18 C1044.27334,236.18 1044.66667,236.339998 1045,236.66 C1045.33334,236.980002 1045.5,237.366664 1045.5,237.82 L1045.5,249.5 C1045.5,249.953336 1045.33334,250.346665 1045,250.68 C1044.66667,251.013335 1044.27334,251.18 1043.82,251.18 L1034.68,251.18 C1034.22666,251.18 1033.83334,251.013335 1033.5,250.68 C1033.16667,250.346665 1033,249.953336 1033,249.5 L1033,237.82 C1033,237.366664 1033.16667,236.980002 1033.5,236.66 C1033.83334,236.339998 1034.22666,236.18 1034.68,236.18 L1043.82,236.18 Z M1041.32,232.82 L1041.32,234.5 L1031.32,234.5 L1031.32,246.18 L1029.68,246.18 L1029.68,234.5 C1029.68,234.046664 1029.84,233.653335 1030.16,233.32 C1030.48,232.986665 1030.86666,232.82 1031.32,232.82 L1041.32,232.82 Z" transform="translate(-1029 -232)"/>
</svg>
