<?xml version="1.0" encoding="UTF-8"?>
<svg width="16px" height="20px" viewBox="0 0 16 20" version="1.1" xmlns="http://www.w3.org/2000/svg" xmlns:xlink="http://www.w3.org/1999/xlink">
    <!-- Generator: Sketch 54.1 (76490) - https://sketchapp.com -->
    <title></title>
    <desc>Created with Sketch.</desc>
    <g id="Page-2" stroke="none" stroke-width="1" fill="none" fill-rule="evenodd">
        <g id="01_Page_lists" transform="translate(-1224.000000, -674.000000)" fill="#F94949" fill-rule="nonzero">
            <g id="Group-23" transform="translate(1143.000000, 674.000000)">
                <g id="Group-11" transform="translate(20.000000, 0.000000)">
                    <path d="M73.0412371,0.984 L77,0.984 L77,3 L61,3 L61,0.984 L64.9862543,0.984 L66.1683849,0 L71.8591065,0 L73.0412371,0.984 Z M65,9.6 L67.4135593,12.040678 L65.0542373,14.4271186 L66.6271186,16 L69.0135593,13.640678 L71.4,16 L73,14.4271186 L70.6135593,12.040678 L73,9.6 L71.4,8 L69.0135593,10.440678 L66.6271186,8 L65,9.6 Z M62,17.6986301 L62,4 L76,4 L76,17.6986301 C76,18.3196378 75.766669,18.8584452 75.3,19.3150685 C74.833331,19.7716918 74.2826698,20 73.648,20 L64.352,20 C63.7173302,20 63.166669,19.7716918 62.7,19.3150685 C62.233331,18.8584452 62,18.3196378 62,17.6986301 Z" id=""></path>
                </g>
            </g>
        </g>
    </g>
</svg>