<?xml version="1.0" encoding="UTF-8"?>
<svg width="13px" height="17px" viewBox="0 0 13 17" version="1.1" xmlns="http://www.w3.org/2000/svg" xmlns:xlink="http://www.w3.org/1999/xlink">
    <!-- Generator: Sketch 54.1 (76490) - https://sketchapp.com -->
    <title>Shape</title>
    <desc>Created with Sketch.</desc>
    <g id="Page-2" stroke="none" stroke-width="1" fill="none" fill-rule="evenodd">
        <g id="01_Page_lists" transform="translate(-90.000000, -95.000000)" fill="#012C61" fill-rule="nonzero">
            <g id="Group-27" transform="translate(90.000000, 91.000000)">
                <g id="Group-6">
                    <g id="Group-35">
                        <g id="Group-42">
                            <path d="M13,16.1875 L13,19.4375 C13,19.88665 12.63665,20.25 12.1875,20.25 L11.3748375,20.25 L11.3748375,15.375 L12.1875,15.375 C12.63665,15.375 13,15.73835 13,16.1875 Z M12.1875,9.6875 L11.3748375,9.6875 L11.3748375,14.5625 L12.1875,14.5625 C12.63665,14.5625 13,14.19915 13,13.75 L13,10.5 C13,10.05085 12.63665,9.6875 12.1875,9.6875 Z M13,4.8125 L13,8.0625 C13,8.51165 12.63665,8.875 12.1875,8.875 L10.5625,8.875 L10.5625,8.8751625 L10.5623375,8.8751625 L10.5623375,20.25 L0,20.25 L0,4 L12.1875,4 C12.63665,4 13,4.36335 13,4.8125 Z M3.1247125,6.8842125 L4.510025,8.269525 L4.8527375,7.927625 C4.97965,7.8007125 4.97965,7.593525 4.8527375,7.4658 L3.9290875,6.54215 C3.8153375,6.4271 3.607825,6.400775 3.46645,6.54215 L3.1247125,6.8842125 Z M3.697525,10.929975 C5.7763875,13.0088375 7.421375,11.8728 7.4569625,11.7900875 L6.07165,10.404775 C6.0380125,10.5079625 5.77655,10.699875 4.8529,9.7747625 C3.92925,8.8527375 4.1065375,8.59615 4.2237,8.556825 L2.837575,7.1715125 C2.74495,7.2253 1.6202875,8.8527375 3.697525,10.929975 Z M8.125,15.375 L2.4375,15.375 L2.4375,16.1875 L8.125,16.1875 L8.125,15.375 Z M8.125,13.75 L2.4375,13.75 L2.4375,14.5625 L8.125,14.5625 L8.125,13.75 Z M8.0861625,10.699875 L7.1625125,9.7747625 C7.039175,9.652075 6.8328,9.64265 6.7006875,9.7747625 L6.3587875,10.117475 L7.7441,11.5027875 L8.086,11.1615375 C8.2138875,11.0331625 8.2138875,10.82695 8.0861625,10.699875 Z" id="Shape"></path>
                        </g>
                    </g>
                </g>
            </g>
        </g>
    </g>
</svg>