<?xml version="1.0" encoding="UTF-8"?>
<svg width="18px" height="18px" viewBox="0 0 18 18" version="1.1" xmlns="http://www.w3.org/2000/svg" xmlns:xlink="http://www.w3.org/1999/xlink">
    <!-- Generator: Sketch 54.1 (76490) - https://sketchapp.com -->
    <title></title>
    <desc>Created with Sketch.</desc>
    <g id="Page-2" stroke="none" stroke-width="1" fill="none" fill-rule="evenodd">
        <g id="01_Page_lists" transform="translate(-1132.000000, -676.000000)" fill="#3296C1" fill-rule="nonzero">
            <path d="M1144.80769,690.408654 L1143.79087,686.060096 L1147.16587,683.139423 L1142.73077,682.75 L1141,678.704327 L1139.26923,682.793269 L1134.83413,683.139423 L1138.20913,686.060096 L1137.19231,690.408654 L1141,688.115385 L1144.80769,690.408654 Z M1141,676 C1142.64424,676 1144.16586,676.411054 1145.5649,677.233173 C1146.92068,678.012023 1147.98798,679.07932 1148.76683,680.435096 C1149.58895,681.834142 1150,683.355761 1150,685 C1150,686.644239 1149.58895,688.165858 1148.76683,689.564904 C1147.98798,690.92068 1146.92068,691.987977 1145.5649,692.766827 C1144.16586,693.588946 1142.64424,694 1141,694 C1139.35576,694 1137.83414,693.588946 1136.4351,692.766827 C1135.07932,691.973554 1134.01202,690.899045 1133.23317,689.543269 C1132.41105,688.144224 1132,686.629816 1132,685 C1132,683.370184 1132.41105,681.855776 1133.23317,680.456731 C1134.02645,679.100955 1135.10095,678.026446 1136.45673,677.233173 C1137.85578,676.411054 1139.37018,676 1141,676 Z" id=""></path>
        </g>
    </g>
</svg>