<svg xmlns="http://www.w3.org/2000/svg" width="19" height="14" viewBox="0 0 19 14">
  <defs>
    <linearGradient id="ic_gd_mail-a" x1="112.893%" x2="-11.794%" y1="20.13%" y2="79.441%">
      <stop offset="0%" stop-color="#39ABB2"/>
      <stop offset="37.063%" stop-color="#39ABB2"/>
      <stop offset="77.574%" stop-color="#287AD7"/>
      <stop offset="100%" stop-color="#287AD7"/>
    </linearGradient>
  </defs>
  <path fill="url(#ic_gd_mail-a)" fill-rule="evenodd" d="M342.981445,512.335937 C342.993815,512.360677 343,512.385417 343,512.410156 L343,521.984375 C343,522.479169 342.876303,522.949216 342.628906,523.394531 C342.381509,523.839846 342.010419,524.0625 341.515625,524.0625 L326.078125,524.0625 C325.583331,524.0625 325.113284,523.839846 324.667969,523.394531 C324.222654,522.949216 324,522.479169 324,521.984375 L324,512.410156 C324,512.385417 324.006185,512.360677 324.018555,512.335937 C323.993815,512.249349 323.993815,512.165853 324.018555,512.085449 C324.043294,512.005045 324.086588,511.927735 324.148438,511.853516 C324.160807,511.841146 324.173177,511.825684 324.185547,511.807129 C324.197917,511.788574 324.216471,511.773112 324.241211,511.760742 C324.426759,511.513345 324.689614,511.324708 325.029785,511.194824 C325.369956,511.064941 325.719399,511 326.078125,511 L341.515625,511 C341.91146,511 342.229979,511.083495 342.471191,511.250488 C342.712404,511.417481 342.870117,511.667967 342.944336,512.001953 C342.969076,512.051433 342.984538,512.104004 342.990723,512.159668 C342.996908,512.215332 342.993815,512.274088 342.981445,512.335937 Z M325.799805,512.1875 C325.700846,512.1875 325.601889,512.193685 325.50293,512.206055 L333.5,518.588867 L341.515625,512.1875 L325.799805,512.1875 Z M341.515625,522.875 C341.676433,522.875 341.766113,522.766765 341.784668,522.550293 C341.803223,522.33382 341.8125,522.145183 341.8125,521.984375 L341.8125,513.486328 L333.889648,519.813477 C333.827799,519.862956 333.765951,519.900065 333.704102,519.924805 C333.642252,519.949544 333.574219,519.961914 333.5,519.961914 C333.425781,519.961914 333.357748,519.949544 333.295898,519.924805 C333.234049,519.900065 333.172201,519.862956 333.110352,519.813477 L325.1875,513.486328 L325.1875,521.984375 C325.1875,522.145183 325.295735,522.33382 325.512207,522.550293 C325.72868,522.766765 325.917317,522.875 326.078125,522.875 L341.515625,522.875 Z" transform="translate(-324 -511)"/>
</svg>
