<svg xmlns="http://www.w3.org/2000/svg" width="21" height="21" viewBox="0 0 21 21">
  <defs>
    <linearGradient id="ic_gd_stetho-a" x1="112.893%" x2="-11.794%" y1="-11.259%" y2="110.379%">
      <stop offset="0%" stop-color="#39ABB2"/>
      <stop offset="37.063%" stop-color="#39ABB2"/>
      <stop offset="77.574%" stop-color="#287AD7"/>
      <stop offset="100%" stop-color="#287AD7"/>
    </linearGradient>
  </defs>
  <path fill="url(#ic_gd_stetho-a)" d="M19.4835886,9.96239913 L19.4835886,8.55063594 C19.4835886,6.70897155 18.0829544,5.20907412 16.3588621,5.20907412 C14.6862862,5.20907412 13.285652,6.66122472 13.2341357,8.45155224 L13.2562141,8.45514223 L13.2341357,8.45514223 L13.2341357,15.7008172 C13.2341357,18.0131291 11.5026839,19.8953604 9.37417943,19.8953604 C7.24567494,19.8953604 5.51422319,18.0131291 5.51422319,15.7008172 L5.51422319,14.7045952 C5.91863545,14.7045952 6.24945295,14.3737777 6.24945295,13.6017505 L6.24945295,12.3886932 C6.37438457,12.3628453 6.4957262,12.3334074 6.61706783,12.3003795 C8.74557232,11.7195193 10.2932166,9.90352331 10.2932166,7.74935038 L10.2932166,7.35229759 L9.92560175,7.35229759 L9.90729278,2.20209929 C9.90477981,1.31537199 9.26899277,0.55734579 8.39626641,0.400642779 C8.26092385,0.384846827 8.12468375,0.376230853 7.98826417,0.374974346 C7.85992205,0.143958538 7.61652079,0.000358998906 7.35229759,-3.07827443e-16 C6.99688868,-0.000717997812 6.69173961,0.25273523 6.62765831,0.602220676 C6.56339749,0.951885611 6.75833391,1.29724256 7.0907669,1.42289218 C7.42319989,1.54854179 7.79781521,1.41858419 7.9809047,1.11379409 C8.11265728,1.11738408 8.24405088,1.12959005 8.37418797,1.15059147 C8.84483556,1.28413906 9.17008856,1.71296329 9.17206302,2.20209929 L9.19037199,7.35229759 L8.82275711,7.35229759 L8.82275711,7.76029984 C8.7940372,9.19952647 7.8337151,10.4531507 6.45156936,10.8555884 C6.09508342,10.9699295 5.72316056,11.0280874 5.34872472,11.0284464 L5.33041575,11.0284464 C4.9500564,11.0284464 4.57185109,10.9701091 4.20926215,10.8555884 C2.83070635,10.4181482 1.47045952,9.19773146 1.47045952,7.76029984 L1.47045952,7.35229759 L1.10284464,7.35229759 L1.10284464,2.20568928 C1.10481914,1.70901428 1.43922659,1.2753436 1.91902866,1.14700153 C2.04916575,1.12582057 2.18055935,1.11343512 2.31231193,1.11020411 C2.44280804,1.33350142 2.68226034,1.47063901 2.94091904,1.47045952 C3.34694682,1.47045952 3.6761488,1.14125754 3.6761488,0.735229759 C3.6761488,0.329201974 3.34694682,-4.71081185e-16 2.94091904,-4.71081185e-16 C2.67669584,0.000358998906 2.43329458,0.143958538 2.30495246,0.374974346 C2.16853288,0.376230853 2.03229278,0.384846827 1.89695022,0.400642779 C1.01524891,0.548909304 0.369050875,1.31160251 0.36761488,2.20568928 L0.36761488,7.35229759 L0,7.35229759 L0,7.74935038 C0,9.90352331 1.54764431,11.7195193 3.6761488,12.3003795 C3.79749043,12.3334074 3.91883206,12.3628453 4.04376368,12.3886932 L4.04376368,13.6017505 C4.04376368,14.3737777 4.37458118,14.7045952 4.77899344,14.7045952 L4.77899344,15.7008172 C4.77899344,18.4175414 6.84126264,20.6305901 9.37417943,20.6305901 C11.9070962,20.6305901 13.9693654,18.4175414 13.9693654,15.7008172 L13.9693654,8.4734512 C13.9865974,7.80750821 14.2468716,7.17082363 14.7010052,6.68330312 C15.1276754,6.21839956 15.7279216,5.95094535 16.3588621,5.94430388 C17.6749521,5.94430388 18.7483589,7.11338381 18.7483589,8.55063594 L18.7483589,9.96239913 C17.8237572,10.1510531 17.1922781,11.0092399 17.2872333,11.9480221 C17.382009,12.8868042 18.1723451,13.6013916 19.1159737,13.6013916 C20.0596024,13.6013916 20.8499385,12.8868042 20.9447142,11.9480221 C21.0396694,11.0092399 20.4081903,10.1510531 19.4835886,9.96239913 Z M19.1159737,12.8665208 C18.5069321,12.8665208 18.0131291,12.3727178 18.0131291,11.7636761 C18.0131291,11.1546345 18.5069321,10.6608315 19.1159737,10.6608315 C19.7250154,10.6608315 20.2188184,11.1546345 20.2188184,11.7636761 C20.2170234,12.3719998 19.7242974,12.8647258 19.1159737,12.8665208 Z" transform="matrix(-1 0 0 1 21 0)"/>
</svg>
