<svg xmlns="http://www.w3.org/2000/svg" width="16" height="21" viewBox="0 0 16 21">
  <defs>
    <linearGradient id="ic_gd_map-a" x1="85.142%" x2="2.835%" y1="-17.297%" y2="140.217%">
      <stop offset="0%" stop-color="#39ABB2"/>
      <stop offset="30.288%" stop-color="#39ABB2"/>
      <stop offset="86.206%" stop-color="#287AD7"/>
      <stop offset="100%" stop-color="#287AD7"/>
    </linearGradient>
  </defs>
  <path fill="none" stroke="url(#ic_gd_map-a)" d="M7.018484,10 C3.16885529,10 0.036968,13.1318873 0.036968,16.9814783 C0.036968,21.7589412 6.28474089,28.7725359 6.55074536,29.0687741 C6.80059754,29.3470528 7.23682227,29.3465633 7.48622264,29.0687741 C7.75222711,28.7725359 14,21.7589412 14,16.9814783 C13.9999247,13.1318873 10.8680751,10 7.018484,10 Z M7.018484,20.4940551 C5.08164014,20.4940551 3.50594488,18.9183222 3.50594488,16.9814783 C3.50594488,15.0446345 5.08167779,13.4689392 7.018484,13.4689392 C8.95529021,13.4689392 10.5309855,15.0446721 10.5309855,16.981516 C10.5309855,18.9183599 8.95529021,20.4940551 7.018484,20.4940551 Z" transform="matrix(-1 0 0 1 15.037 -9)"/>
</svg>
