<svg xmlns="http://www.w3.org/2000/svg" width="17" height="17" viewBox="0 0 17 17">
  <path d="M101.14,124.14 L101.14,119.14 L99.5,119.14 L99.5,124.14 L101.14,124.14 Z M101.14,127.5 L101.14,125.82 L99.5,125.82 L99.5,127.5 L101.14,127.5 Z M100.32,115 C101.840008,115 103.24666,115.379996 104.54,116.14 C105.79334,116.860004 106.779996,117.84666 107.5,119.1 C108.260004,120.39334 108.64,121.799992 108.64,123.32 C108.64,124.840008 108.260004,126.24666 107.5,127.54 C106.779996,128.79334 105.79334,129.779996 104.54,130.5 C103.24666,131.260004 101.840008,131.64 100.32,131.64 C98.7999924,131.64 97.3933398,131.260004 96.1,130.5 C94.8466604,129.766663 93.8600036,128.77334 93.14,127.52 C92.3799962,126.22666 92,124.826674 92,123.32 C92,121.813326 92.3799962,120.41334 93.14,119.12 C93.873337,117.86666 94.8666604,116.873337 96.12,116.14 C97.4133398,115.379996 98.8133258,115 100.32,115 Z" transform="translate(-92 -115)"/>
</svg>
