<?xml version="1.0" encoding="UTF-8"?>
<svg width="20px" height="23px" viewBox="0 0 20 23" version="1.1" xmlns="http://www.w3.org/2000/svg" xmlns:xlink="http://www.w3.org/1999/xlink">
    <!-- Generator: Sketch 54.1 (76490) - https://sketchapp.com -->
    <title>shield (1)</title>
    <desc>Created with Sketch.</desc>
    <g id="Page-2" stroke="none" stroke-width="1" fill="none" fill-rule="evenodd">
        <g id="01_Page_lists" transform="translate(-683.000000, -91.000000)" fill="#012C61" fill-rule="nonzero">
            <g id="Group-27" transform="translate(90.000000, 91.000000)">
                <g id="Group-6">
                    <g id="Group-35">
                        <g id="Group-41" transform="translate(593.000000, 0.000000)">
                            <g id="shield-(1)">
                                <path d="M19.976694,6.2404876 L19.9759772,6.22258905 C19.9657635,6.00166509 19.9589544,5.76793145 19.9548331,5.50787638 C19.9356601,4.2397132 18.9062287,3.19071925 17.6110625,3.11982705 C14.910709,2.97225192 12.8217429,2.10996416 11.0368576,0.406270214 L11.0216267,0.392056646 C10.439447,-0.130685549 9.56124976,-0.130685549 8.97889083,0.392056646 L8.96365992,0.406270214 C7.17877468,2.10996416 5.08980847,2.97225192 2.38945505,3.12000252 C1.09446802,3.19071925 0.0648574491,4.2397132 0.0456844365,5.50805184 C0.0417422917,5.76635213 0.0347539734,6.00008582 0.0245403056,6.22258905 L0.0234652044,6.26417679 C-0.0290366793,8.96071249 -0.0942609225,12.316686 1.0521798,15.3627694 C1.68256094,17.0378608 2.63727117,18.4939585 3.88961159,19.6908785 C5.31594293,21.0539741 7.18415028,22.1361329 9.44226936,22.9071733 C9.51573615,22.9322664 9.59206998,22.9526215 9.66983727,22.9678879 C9.77949994,22.989296 9.88987935,23 10.0002588,23 C10.1106382,23 10.2211968,22.989296 10.3306802,22.9678879 C10.4084476,22.9526215 10.4853189,22.9320909 10.5591441,22.9068224 C12.8145754,22.1343782 14.6808117,21.0516929 16.1058887,19.6887728 C17.3576916,18.4915018 18.3124018,17.0350532 18.9433205,15.3596108 C20.0940617,12.3044027 20.0290167,8.94211209 19.976694,6.2404876 Z M17.6503046,14.8926699 C16.4411482,18.103174 13.9728425,20.3080267 10.1043666,21.6328685 C10.0905692,21.6374309 10.0758758,21.6414668 10.0606449,21.6444499 C10.0206861,21.6521709 9.9800106,21.6521709 9.93951428,21.6442744 C9.92446249,21.6412913 9.90976915,21.6374309 9.89615092,21.6328685 C6.02355379,20.3104833 3.55363528,18.106859 2.34537493,14.8961794 C1.28870711,12.0883921 1.34855571,9.00773999 1.40141594,6.28997174 L1.40177434,6.27488085 C1.41252558,6.04132263 1.41969308,5.79670942 1.42363518,5.52788064 C1.43223617,4.96477895 1.89023905,4.4988909 2.46632641,4.46748073 C3.99443618,4.38395428 5.33690784,4.09477026 6.5704336,3.58343393 C7.80234668,3.07279955 8.89646465,2.35299805 9.91496558,1.38296816 C9.96675076,1.34015208 10.033946,1.33997661 10.0855519,1.38296816 C11.104232,2.35299805 12.1983501,3.07279955 13.430084,3.58343393 C14.6636097,4.09477026 16.0060814,4.38395428 17.5343703,4.46748073 C18.1104577,4.4988909 18.5684605,4.96477895 18.5768823,5.5280561 C18.5810037,5.79828874 18.5881712,6.0429019 18.5989224,6.27488085 C18.6516035,8.99580764 18.7100186,12.0789164 17.6503046,14.8926699 Z" id="Shape"></path>
                                <path d="M10,6 C6.69150466,6 4,8.46734324 4,11.4999158 C4,14.5326568 6.69150466,17 10,17 C13.3083116,17 16,14.5326568 16,11.4999158 C16,8.46734324 13.3083116,6 10,6 Z M10,15.7048721 C7.47050358,15.7048721 5.4127047,13.8185853 5.4127047,11.4999158 C5.4127047,9.18124629 7.47050358,7.29495952 10,7.29495952 C12.5293127,7.29495952 14.5871116,9.18124629 14.5871116,11.4999158 C14.5871116,13.8185853 12.5293127,15.7048721 10,15.7048721 Z" id="Shape"></path>
                                <path d="M11.7850368,10.1762481 L8.97709714,12.5484252 L8.21496322,11.9045665 C7.9369824,11.6697253 7.48632769,11.6697253 7.20834682,11.9045665 C6.93055106,12.1394076 6.93055106,12.5201255 7.20834682,12.7548103 L8.47388147,13.8239473 C8.6128719,13.9413679 8.79498452,14 8.97709714,14 C9.15920976,14 9.34132237,13.9413679 9.48031281,13.8239473 L12.7916531,11.0264919 C13.069449,10.7916508 13.069449,10.4109329 12.7916531,10.1762481 C12.5136723,9.94125063 12.0630176,9.94125063 11.7850368,10.1762481 Z" id="Path"></path>
                            </g>
                        </g>
                    </g>
                </g>
            </g>
        </g>
    </g>
</svg>