<svg xmlns="http://www.w3.org/2000/svg" width="17" height="13" viewBox="0 0 17 13">
  <path fill="#FFF" d="M993.846,239.196 L993.846,237.6 L987.5,241.571 L981.154,237.6 L981.154,239.196 L987.5,243.129 L993.846,239.196 Z M993.846,236.004 C994.276669,236.004 994.643998,236.162332 994.948,236.479 C995.252002,236.795668 995.404,237.169331 995.404,237.6 L995.404,247.1 C995.404,247.530669 995.252002,247.904332 994.948,248.221 C994.643998,248.537668 994.276669,248.696 993.846,248.696 L981.154,248.696 C980.723331,248.696 980.356002,248.537668 980.052,248.221 C979.747998,247.904332 979.596,247.530669 979.596,247.1 L979.596,237.6 C979.596,237.169331 979.747998,236.795668 980.052,236.479 C980.356002,236.162332 980.723331,236.004 981.154,236.004 L993.846,236.004 Z" transform="translate(-979 -236)"/>
</svg>
