<?xml version="1.0" encoding="UTF-8"?>
<svg width="25px" height="25px" viewBox="0 0 25 25" version="1.1" xmlns="http://www.w3.org/2000/svg" xmlns:xlink="http://www.w3.org/1999/xlink">
    <!-- Generator: Sketch 54.1 (76490) - https://sketchapp.com -->
    <title>menu</title>
    <desc>Created with Sketch.</desc>
    <g id="Page-2" stroke="none" stroke-width="1" fill="none" fill-rule="evenodd">
        <g id="01_Page_lists" transform="translate(-1177.000000, -19.000000)" fill="#FFFFFF">
            <g id="Group-3" transform="translate(88.000000, 19.000000)">
                <g id="Group-12">
                    <g id="Group-24" transform="translate(1089.000000, 0.000000)">
                        <g id="menu">
                            <path d="M12.5,0 C5.60758929,0 0,5.60758929 0,12.5 C0,19.3924107 5.60758929,25 12.5,25 C19.3924107,25 25,19.3924107 25,12.5 C25,5.60758929 19.3924107,0 12.5,0 Z M17.8571429,18.3035714 L7.14285714,18.3035714 C6.65,18.3035714 6.25,17.9035714 6.25,17.4107143 C6.25,16.9178571 6.65,16.5178571 7.14285714,16.5178571 L17.8571429,16.5178571 C18.35,16.5178571 18.75,16.9178571 18.75,17.4107143 C18.75,17.9035714 18.35,18.3035714 17.8571429,18.3035714 Z M17.8571429,13.3928571 L7.14285714,13.3928571 C6.65,13.3928571 6.25,12.9928571 6.25,12.5 C6.25,12.0071429 6.65,11.6071429 7.14285714,11.6071429 L17.8571429,11.6071429 C18.35,11.6071429 18.75,12.0071429 18.75,12.5 C18.75,12.9928571 18.35,13.3928571 17.8571429,13.3928571 Z M17.8571429,8.48214286 L7.14285714,8.48214286 C6.65,8.48214286 6.25,8.08214286 6.25,7.58928571 C6.25,7.09642857 6.65,6.69642857 7.14285714,6.69642857 L17.8571429,6.69642857 C18.35,6.69642857 18.75,7.09642857 18.75,7.58928571 C18.75,8.08214286 18.35,8.48214286 17.8571429,8.48214286 Z" id="Shape"></path>
                        </g>
                    </g>
                </g>
            </g>
        </g>
    </g>
</svg>