<svg xmlns="http://www.w3.org/2000/svg" width="16" height="14" viewBox="0 0 16 14">
  <path fill="#3296C1" d="M57.6553101,3.40291845 C58.3951079,3.88520457 58.913865,4.70133318 59.0083115,5.6486735 C59.3100212,5.79524862 59.6448771,5.87953969 59.9999002,5.87953969 C61.295994,5.87953969 62.346487,4.78728516 62.346487,3.43987365 C62.346487,2.09225453 61.295994,1 59.9999002,1 C58.7161862,1.00041523 57.6748783,2.07315409 57.6553101,3.40291845 Z M56.1180082,8.39851408 C57.4141021,8.39851408 58.464595,7.30605193 58.464595,5.95864043 C58.464595,4.61122892 57.4139024,3.51897439 56.1180082,3.51897439 C54.8221141,3.51897439 53.7710221,4.61143654 53.7710221,5.95884804 C53.7710221,7.30625955 54.8221141,8.39851408 56.1180082,8.39851408 Z M57.1133907,8.56481248 L55.1222264,8.56481248 C53.4655185,8.56481248 52.1177087,9.9664111 52.1177087,11.6889802 L52.1177087,14.2208266 L52.1238987,14.2604808 L52.2916261,14.3150831 C53.8726569,14.8287189 55.2462249,15 56.3767877,15 C58.5849994,15 59.8649195,14.3453947 59.9437913,14.3036644 L60.1005366,14.2212418 L60.1173094,14.2212418 L60.1173094,11.6889802 C60.1179084,9.9664111 58.7700986,8.56481248 57.1133907,8.56481248 Z M60.995682,6.0460457 L59.0198927,6.0460457 C58.9985274,6.86798748 58.6610758,7.60812955 58.1273431,8.14045052 C59.5999501,8.59574689 60.6773992,10.0156155 60.6773992,11.6927172 L60.6773992,12.4729287 C62.6282291,12.3986031 63.7524023,11.8237213 63.826482,11.7851052 L63.9832273,11.702475 L64,11.702475 L64,9.16979817 C64,7.44743671 62.6521902,6.0460457 60.995682,6.0460457 Z M52.0004992,5.87995492 C52.4595532,5.87995492 52.8866592,5.74064627 53.2484712,5.50334406 C53.3634843,4.7233402 53.7656308,4.04174514 54.3400973,3.57752139 C54.3424934,3.53184643 54.3466866,3.48658669 54.3466866,3.44049649 C54.3466866,2.09287737 53.295994,1.00062284 52.0004992,1.00062284 C50.7042057,1.00062284 49.6539124,2.09287737 49.6539124,3.44049649 C49.6539124,4.78749277 50.7042057,5.87995492 52.0004992,5.87995492 Z M54.1078747,8.14045052 C53.5767378,7.61082853 53.2404842,6.87463112 53.2159241,6.05767206 C53.1426432,6.0520665 53.070161,6.0460457 52.9954823,6.0460457 L51.0045177,6.0460457 C49.3478098,6.0460457 48,7.44743671 48,9.16979817 L48,11.7020598 L48.0061899,11.7410912 L48.1739174,11.7961087 C49.4422563,12.2078063 50.5742169,12.397565 51.5574192,12.4573577 L51.5574192,11.6927172 C51.5578185,10.0156155 52.6348683,8.59616212 54.1078747,8.14045052 Z" transform="translate(-48 -1)"/>
</svg>
