<?xml version="1.0" encoding="UTF-8"?>
<svg width="22px" height="26px" viewBox="0 0 22 26" version="1.1" xmlns="http://www.w3.org/2000/svg" xmlns:xlink="http://www.w3.org/1999/xlink">
    <!-- Generator: Sketch 54.1 (76490) - https://sketchapp.com -->
    <title>notes</title>
    <desc>Created with Sketch.</desc>
    <g id="Page-2" stroke="none" stroke-width="1" fill="none" fill-rule="evenodd">
        <g id="01_Page_lists" transform="translate(-848.000000, -295.000000)" fill="#7E7E7E" fill-rule="nonzero">
            <g id="Group-18" transform="translate(90.000000, 295.000000)">
                <g id="notes" transform="translate(758.000000, 0.000000)">
                    <rect id="Rectangle" x="5.5" y="10.2142857" width="11" height="1.57142857"></rect>
                    <rect id="Rectangle" x="5.5" y="14.1428571" width="11" height="1.57142857"></rect>
                    <rect id="Rectangle" x="5.5" y="18.0714286" width="5.5" height="1.57142857"></rect>
                    <path d="M21.2142857,3.14285714 L18.0714286,3.14285714 L18.0714286,5.5 L19.6428571,5.5 L19.6428571,22.7857143 L2.35714286,22.7857143 L2.35714286,5.5 L3.92857143,5.5 L3.92857143,3.14285714 L0.785714286,3.14285714 C0.351214286,3.14285714 0,3.49485714 0,3.92857143 L0,24.3571429 C0,24.7908571 0.351214286,25.1428571 0.785714286,25.1428571 L21.2142857,25.1428571 C21.6487857,25.1428571 22,24.7908571 22,24.3571429 L22,3.92857143 C22,3.49485714 21.6487857,3.14285714 21.2142857,3.14285714 Z" id="Path"></path>
                    <path d="M16.5,3.14285714 L14.1428571,3.14285714 C14.1428571,1.40721429 12.7356429,0 11,0 C9.26435714,0 7.85714286,1.40721429 7.85714286,3.14285714 L5.5,3.14285714 L5.5,7.07142857 L16.5,7.07142857 L16.5,3.14285714 Z" id="Path"></path>
                </g>
            </g>
        </g>
    </g>
</svg>