<?xml version="1.0" encoding="UTF-8"?>
<svg width="36px" height="36px" viewBox="0 0 36 36" version="1.1" xmlns="http://www.w3.org/2000/svg" xmlns:xlink="http://www.w3.org/1999/xlink">
    <!-- Generator: Sketch 54.1 (76490) - https://sketchapp.com -->
    <title>Group 47</title>
    <desc>Created with Sketch.</desc>
    <g id="Page-2" stroke="none" stroke-width="1" fill="none" fill-rule="evenodd">
        <g id="01_Page_lists" transform="translate(-1168.000000, -155.000000)">
            <g id="Group-15" transform="translate(93.000000, 155.000000)">
                <g id="Group-13">
                    <g id="Group-34">
                        <g id="Group-47" transform="translate(1075.000000, 0.000000)">
                            <circle id="Oval" fill="#3296C1" cx="18" cy="18" r="18"></circle>
                            <g id="printer-tool" transform="translate(10.400000, 10.400000)" fill="#FFFFFF" fill-rule="nonzero">
                                <path d="M3.99358025,0.998419753 L11.9805432,0.998419753 L11.9805432,2.99516049 L12.978963,2.99516049 L12.978963,0.998419753 C12.978963,0.447572016 12.5324774,0 11.9805432,0 L3.99358025,0 C3.44276543,0 2.99516049,0.447572016 2.99516049,0.998419753 L2.99516049,2.99516049 L3.99358025,2.99516049 L3.99358025,0.998419753 Z" id="Path"></path>
                                <path d="M14.9758025,3.99354733 L0.998452675,3.99354733 C0.44763786,3.99354733 3.29218107e-05,4.44098765 3.29218107e-05,4.99186831 L3.29218107e-05,9.98376955 C3.29218107e-05,10.5356708 0.447604938,10.9821893 0.998452675,10.9821893 L2.99519342,10.9821893 L2.99519342,14.9756708 C2.99519342,15.527572 3.44276543,15.9740576 3.99361317,15.9740576 L11.9805761,15.9740576 C12.5325103,15.9740576 12.9789959,15.527572 12.9789959,14.9756708 L12.9789959,10.9821893 L14.9758025,10.9821893 C15.5275391,10.9821893 15.9740576,10.5356708 15.9740576,9.98376955 L15.9740576,4.99186831 C15.9740576,4.44098765 15.5275062,3.99354733 14.9758025,3.99354733 Z M11.9805432,14.9756708 L3.99358025,14.9756708 L3.99358025,7.98702881 L11.9805432,7.98702881 L11.9805432,14.9756708 Z M13.9773498,6.98870782 C13.4254486,6.98870782 12.978963,6.54215638 12.978963,5.99028807 C12.978963,5.43947325 13.4254486,4.99186831 13.9773498,4.99186831 C14.529284,4.99186831 14.9757695,5.43944033 14.9757695,5.99028807 C14.9758025,6.54212346 14.529284,6.98870782 13.9773498,6.98870782 Z" id="Shape"></path>
                                <rect id="Rectangle" x="4.99190123" y="8.98534979" width="3.99354733" height="1"></rect>
                                <rect id="Rectangle" x="4.99190123" y="10.9821893" width="5.99038683" height="1"></rect>
                                <rect id="Rectangle" x="4.99190123" y="12.9789959" width="5.99038683" height="1"></rect>
                            </g>
                        </g>
                    </g>
                </g>
            </g>
        </g>
    </g>
</svg>