<svg xmlns="http://www.w3.org/2000/svg" width="17" height="17" viewBox="0 0 17 17">
  <g fill="#FFF" transform="translate(.4 .4)">
    <path d="M3.99358025.998419753L11.9805432.998419753 11.9805432 2.99516049 12.978963 2.99516049 12.978963.998419753C12.978963.447572016 12.5324774 0 11.9805432 0L3.99358025 0C3.44276543 0 2.99516049.447572016 2.99516049.998419753L2.99516049 2.99516049 3.99358025 2.99516049 3.99358025.998419753zM14.9758025 3.99354733L.998452675 3.99354733C.44763786 3.99354733.0000329218107 4.44098765.0000329218107 4.99186831L.0000329218107 9.98376955C.0000329218107 10.5356708.447604938 10.9821893.998452675 10.9821893L2.99519342 10.9821893 2.99519342 14.9756708C2.99519342 15.527572 3.44276543 15.9740576 3.99361317 15.9740576L11.9805761 15.9740576C12.5325103 15.9740576 12.9789959 15.527572 12.9789959 14.9756708L12.9789959 10.9821893 14.9758025 10.9821893C15.5275391 10.9821893 15.9740576 10.5356708 15.9740576 9.98376955L15.9740576 4.99186831C15.9740576 4.44098765 15.5275062 3.99354733 14.9758025 3.99354733zM11.9805432 14.9756708L3.99358025 14.9756708 3.99358025 7.98702881 11.9805432 7.98702881 11.9805432 14.9756708zM13.9773498 6.98870782C13.4254486 6.98870782 12.978963 6.54215638 12.978963 5.99028807 12.978963 5.43947325 13.4254486 4.99186831 13.9773498 4.99186831 14.529284 4.99186831 14.9757695 5.43944033 14.9757695 5.99028807 14.9758025 6.54212346 14.529284 6.98870782 13.9773498 6.98870782z"/>
    <rect width="3.994" height="1" x="4.992" y="8.985"/>
    <rect width="5.99" height="1" x="4.992" y="10.982"/>
    <rect width="5.99" height="1" x="4.992" y="12.979"/>
  </g>
</svg>
