<?xml version="1.0" encoding="UTF-8"?>
<svg width="21px" height="24px" viewBox="0 0 21 24" version="1.1" xmlns="http://www.w3.org/2000/svg" xmlns:xlink="http://www.w3.org/1999/xlink">
    <!-- Generator: Sketch 54.1 (76490) - https://sketchapp.com -->
    <title>power</title>
    <desc>Created with Sketch.</desc>
    <g id="Page-2" stroke="none" stroke-width="1" fill="none" fill-rule="evenodd">
        <g id="01_Page_lists" transform="translate(-1124.000000, -20.000000)" fill="#FFFFFF" fill-rule="nonzero">
            <g id="power" transform="translate(1124.000000, 20.000000)">
                <path d="M0.0465810017,14.2318331 C-0.296215219,10.4350446 1.27969518,6.99588903 3.89351637,4.81089848 C4.91238291,3.95845822 6.43592167,4.68842143 6.43592167,6.03566897 L6.43592167,6.03566897 C6.43592167,6.53047625 6.20739086,6.98609087 5.83602829,7.29473303 C3.98397648,8.84774201 2.86988876,11.297283 3.14126911,14.0015762 C3.49358744,17.5240162 6.23595721,20.3752818 9.6543973,20.7672084 C14.1155092,21.281612 17.9053119,17.6856859 17.9053119,13.1981268 C17.9053119,10.817173 16.8340737,8.6860723 15.1629421,7.28983395 C14.7915796,6.98119178 14.5678098,6.52557716 14.5678098,6.03566897 L14.5678098,6.03566897 C14.5678098,4.70311868 16.0675433,3.94866006 17.0768877,4.78150399 C19.4669391,6.76563218 21,9.79816391 21,13.1981268 C21,19.4150618 15.8675788,24.4268226 9.73057424,23.971208 C4.65528575,23.6037769 0.517925805,19.4444563 0.0465810017,14.2318331 Z M10.4971047,0 C9.64011413,0 8.94976063,0.715265965 8.94976063,1.59220164 L8.94976063,8.92612732 C8.94976063,9.80796207 9.64487518,10.518329 10.4971047,10.518329 C11.3493342,10.518329 12.0444487,9.80306299 12.0444487,8.92612732 L12.0444487,1.59220164 C12.0444487,0.715265965 11.3540952,0 10.4971047,0 Z" id="Shape"></path>
            </g>
        </g>
    </g>
</svg>