<?xml version="1.0" encoding="UTF-8"?>
<svg width="25px" height="25px" viewBox="0 0 25 25" version="1.1" xmlns="http://www.w3.org/2000/svg" xmlns:xlink="http://www.w3.org/1999/xlink">
    <!-- Generator: Sketch 54.1 (76490) - https://sketchapp.com -->
    <title>Shape</title>
    <desc>Created with Sketch.</desc>
    <g id="Page-2" stroke="none" stroke-width="1" fill="none" fill-rule="evenodd">
        <g id="01_Page_lists" transform="translate(-1234.000000, -19.000000)" fill="#FFFFFF" fill-rule="nonzero">
            <g id="Group-3" transform="translate(88.000000, 19.000000)">
                <g id="Group-12">
                    <g id="Group-24" transform="translate(1089.000000, 0.000000)">
                        <g id="question-mark-on-a-circular-black-background" transform="translate(57.000000, 0.000000)">
                            <path d="M23.2991458,6.21884966 C22.1825171,4.3058656 20.6678815,2.79123007 18.7548405,1.67465831 C16.8414579,0.558143508 14.7527335,0 12.4870729,0 C10.2216401,0 8.13228929,0.558143508 6.21924829,1.67465831 C4.30609339,2.79105923 2.79145786,4.30569476 1.67482916,6.21884966 C0.558143508,8.13211845 0,10.2214692 0,12.4867312 C0,14.7521071 0.558314351,16.8411162 1.67465831,18.7544989 C2.79123007,20.6674829 4.3058656,22.1821185 6.2190205,23.2988041 C8.13228929,24.415262 10.2214692,24.9734624 12.4868451,24.9734624 C14.752221,24.9734624 16.8416287,24.415262 18.7547836,23.2988041 C20.6678246,22.1825171 22.1824032,20.6674829 23.298918,18.7544989 C24.415262,16.841287 24.9733485,14.7519932 24.9733485,12.4867312 C24.9734055,10.2212415 24.415262,8.13183371 23.2991458,6.21884966 Z M14.5683371,20.2909453 C14.5683371,20.4425399 14.5192483,20.5673121 14.4218109,20.6646925 C14.3247722,20.7621298 14.2,20.810877 14.0484055,20.810877 L10.9263667,20.810877 C10.7746583,20.810877 10.6499431,20.7621298 10.5523918,20.6646925 C10.4547836,20.5672551 10.4060364,20.4425399 10.4060364,20.2909453 L10.4060364,17.1689066 C10.4060364,17.0173121 10.4547267,16.8925399 10.5523918,16.7951595 C10.6499431,16.6978929 10.7746583,16.6492027 10.9263667,16.6492027 L14.0484055,16.6492027 C14.2,16.6492027 14.3247722,16.6978929 14.4218109,16.7951595 C14.5192483,16.8925968 14.5683371,17.0173121 14.5683371,17.1689066 L14.5683371,20.2909453 Z M18.527221,10.6818907 C18.3915718,11.0829727 18.2399772,11.4110478 18.0719818,11.6656606 C17.9040433,11.9203872 17.6626993,12.1805809 17.3482346,12.4460137 C17.0344533,12.7115604 16.7849658,12.9013667 16.6002278,13.0153759 C16.416287,13.1289863 16.1504556,13.2837699 15.8039863,13.4786446 C15.4461845,13.6843964 15.151082,13.9527904 14.9181663,14.2835421 C14.6850797,14.6140661 14.5685649,14.8822323 14.5685649,15.0879841 C14.5685649,15.2400342 14.5194761,15.3646925 14.4219818,15.4621868 C14.3247722,15.5596241 14.2000569,15.6083144 14.0484055,15.6083144 L10.9265376,15.6083144 C10.7748292,15.6083144 10.6501139,15.5596241 10.5525626,15.4621868 C10.4548975,15.3646925 10.4063212,15.2400342 10.4063212,15.0879841 L10.4063212,14.5026196 C10.4063212,13.7764237 10.6906606,13.0959567 11.259795,12.4620729 C11.8289294,11.8279043 12.4548975,11.3591116 13.1378702,11.0555809 C13.6578018,10.8171982 14.0264806,10.5732346 14.2432232,10.3239749 C14.4603075,10.0747153 14.5686788,9.74379271 14.5686788,9.33211845 C14.5686788,8.97431663 14.365262,8.65461276 13.958713,8.3726082 C13.552164,8.09088838 13.089123,7.95 12.5686788,7.95 C12.0048975,7.95 11.5389522,8.08012528 11.1703303,8.34037585 C10.8125285,8.60034169 10.3465831,9.09903189 9.77203872,9.83599089 C9.67448747,9.96617312 9.53895216,10.0313781 9.36548975,10.0313781 C9.23542141,10.0313781 9.13240319,9.998918 9.05660592,9.93405467 L6.91059226,8.30808656 C6.66133257,8.11292711 6.61799544,7.88542141 6.78041002,7.62522779 C8.16799544,5.31645786 10.1785877,4.16207289 12.8124146,4.16207289 C13.7556378,4.16207289 14.6771071,4.38433941 15.5767084,4.82881549 C16.4762528,5.27306378 17.2269932,5.90182232 17.8287585,6.71486333 C18.4297836,7.52761959 18.7310934,8.41116173 18.7310934,9.36503417 C18.7302961,9.84191344 18.6623007,10.2806948 18.527221,10.6818907 Z" id="Shape"></path>
                        </g>
                    </g>
                </g>
            </g>
        </g>
    </g>
</svg>