<?xml version="1.0" encoding="UTF-8"?>
<svg width="16px" height="16px" viewBox="0 0 16 16" version="1.1" xmlns="http://www.w3.org/2000/svg" xmlns:xlink="http://www.w3.org/1999/xlink">
    <!-- Generator: Sketch 53.2 (72643) - https://sketchapp.com -->
    <title></title>
    <desc>Created with Sketch.</desc>
    <g id="Page-2" stroke="none" stroke-width="1" fill="none" fill-rule="evenodd">
        <g id="23_Page_On-details_page" transform="translate(-1081.000000, -188.000000)" fill="#FFFFFF" fill-rule="nonzero">
            <path d="M1094.06571,190.254294 L1096.32,188 L1096.32,194.73988 L1089.58012,194.73988 L1092.68553,191.634474 C1092.14879,191.097735 1091.53155,190.679851 1090.83378,190.380811 C1090.13602,190.08177 1089.40377,189.932252 1088.637,189.932252 C1087.59419,189.932252 1086.63191,190.189117 1085.75012,190.702853 C1084.86833,191.216589 1084.17058,191.91434 1083.65685,192.796126 C1083.14311,193.677912 1082.88625,194.640195 1082.88625,195.683003 C1082.88625,196.725811 1083.14311,197.688094 1083.65685,198.56988 C1084.17058,199.451666 1084.86833,200.149417 1085.75012,200.663153 C1086.63191,201.176889 1087.59419,201.433754 1088.637,201.433754 C1089.87917,201.433754 1090.99863,201.081045 1091.99544,200.375616 C1092.99224,199.670187 1093.68232,198.750076 1094.06571,197.615255 L1096.04396,197.615255 C1095.76793,198.719405 1095.26953,199.70469 1094.54877,200.571141 C1093.828,201.437592 1092.96923,202.116174 1091.97243,202.606907 C1090.92962,203.112976 1089.81782,203.366006 1088.637,203.366006 C1087.25681,203.366006 1085.96865,203.013297 1084.77249,202.307868 C1083.62234,201.63311 1082.70989,200.712999 1082.03514,199.547508 C1081.34504,198.366681 1081,197.078525 1081,195.683003 C1081,194.287481 1081.34504,192.999325 1082.03514,191.818498 C1082.70989,190.653007 1083.62234,189.732896 1084.77249,189.058138 C1085.96865,188.352709 1087.25681,188 1088.637,188 C1089.67981,188 1090.66892,188.199357 1091.60438,188.598078 C1092.53984,188.996799 1093.36028,189.548865 1094.06571,190.254294 Z" id=""></path>
        </g>
    </g>
</svg>