<?xml version="1.0" encoding="UTF-8"?>
<svg width="22px" height="22px" viewBox="0 0 22 22" version="1.1" xmlns="http://www.w3.org/2000/svg" xmlns:xlink="http://www.w3.org/1999/xlink">
    <!-- Generator: Sketch 55 (78076) - https://sketchapp.com -->
    <title></title>
    <desc>Created with Sketch.</desc>
    <g id="Page-1" stroke="none" stroke-width="1" fill="none" fill-rule="evenodd">
        <g id="Page_On-details_page" transform="translate(-1128.000000, -22.000000)" fill="#FFFFFF" fill-rule="nonzero" stroke="#FFFFFF">
            <g id="Group-7">
                <g id="Group">
                    <g id="Group-2" transform="translate(1.000000, 0.000000)">
                        <path d="M1147.82422,42.1757812 C1147.94141,42.2929693 1148,42.4394522 1148,42.6152344 C1148,42.7910165 1147.94141,42.9374994 1147.82422,43.0546875 C1147.69401,43.1848965 1147.54427,43.25 1147.375,43.25 C1147.20573,43.25 1147.05599,43.1848965 1146.92578,43.0546875 L1140.87109,36.9609375 C1140.18099,37.5598988 1139.39974,38.0286441 1138.52734,38.3671875 C1137.65494,38.7057309 1136.73047,38.875 1135.75391,38.875 C1134.67317,38.875 1133.65756,38.6699239 1132.70703,38.2597656 C1131.75651,37.8496073 1130.92644,37.2929723 1130.2168,36.5898438 C1129.50716,35.8867152 1128.95052,35.0599006 1128.54688,34.109375 C1128.14323,33.1588494 1127.94141,32.1432346 1127.94141,31.0625 C1127.94141,29.9817654 1128.14323,28.9661506 1128.54688,28.015625 C1128.95052,27.0650994 1129.50716,26.2382848 1130.2168,25.5351562 C1130.92644,24.8320277 1131.75651,24.2753927 1132.70703,23.8652344 C1133.65756,23.4550761 1134.67317,23.25 1135.75391,23.25 C1136.82162,23.25 1137.83072,23.4550761 1138.78125,23.8652344 C1139.73178,24.2753927 1140.56185,24.8320277 1141.27148,25.5351562 C1141.98112,26.2382848 1142.54101,27.0650994 1142.95117,28.015625 C1143.36133,28.9661506 1143.56641,29.9817654 1143.56641,31.0625 C1143.56641,32.0130256 1143.40365,32.9147093 1143.07812,33.7675781 C1142.7526,34.620447 1142.3099,35.3854133 1141.75,36.0625 L1147.82422,42.1757812 Z M1135.75391,37.6445312 C1136.65235,37.6445312 1137.50195,37.4720069 1138.30273,37.1269531 C1139.10352,36.7818993 1139.80013,36.3098988 1140.39258,35.7109375 C1140.98503,35.1119762 1141.45377,34.4153686 1141.79883,33.6210938 C1142.14388,32.8268189 1142.31641,31.9739629 1142.31641,31.0625 C1142.31641,30.1510371 1142.14388,29.2981811 1141.79883,28.5039062 C1141.45377,27.7096314 1140.98503,27.0130238 1140.39258,26.4140625 C1139.80013,25.8151012 1139.10352,25.3431007 1138.30273,24.9980469 C1137.50195,24.6529931 1136.65235,24.4804688 1135.75391,24.4804688 C1134.84244,24.4804688 1133.98633,24.6529931 1133.18555,24.9980469 C1132.38476,25.3431007 1131.68815,25.8151012 1131.0957,26.4140625 C1130.50325,27.0130238 1130.03451,27.7096314 1129.68945,28.5039062 C1129.3444,29.2981811 1129.17188,30.1510371 1129.17188,31.0625 C1129.17188,31.9739629 1129.3444,32.8268189 1129.68945,33.6210938 C1130.03451,34.4153686 1130.50325,35.1119762 1131.0957,35.7109375 C1131.68815,36.3098988 1132.38476,36.7818993 1133.18555,37.1269531 C1133.98633,37.4720069 1134.84244,37.6445312 1135.75391,37.6445312 Z" id=""></path>
                    </g>
                </g>
            </g>
        </g>
    </g>
</svg>