<?xml version="1.0" encoding="UTF-8"?>
<svg width="22px" height="22px" viewBox="0 0 22 22" version="1.1" xmlns="http://www.w3.org/2000/svg" xmlns:xlink="http://www.w3.org/1999/xlink">
    <!-- Generator: Sketch 55 (78076) - https://sketchapp.com -->
    <title></title>
    <desc>Created with Sketch.</desc>
    <g id="Page-1" stroke="none" stroke-width="1" fill="none" fill-rule="evenodd">
        <g id="Page_On-details_page_search_options" transform="translate(-1187.000000, -24.000000)" fill="#B6B6B6" fill-rule="nonzero" stroke="#B6B6B6">
            <path d="M1207.88281,43.9257812 C1208,44.0429693 1208.05859,44.1894522 1208.05859,44.3652344 C1208.05859,44.5410165 1208,44.6874994 1207.88281,44.8046875 C1207.7526,44.9348965 1207.60287,45 1207.43359,45 C1207.26432,45 1207.11458,44.9348965 1206.98438,44.8046875 L1200.92969,38.7109375 C1200.23958,39.3098988 1199.45834,39.7786441 1198.58594,40.1171875 C1197.71354,40.4557309 1196.78907,40.625 1195.8125,40.625 C1194.73177,40.625 1193.71615,40.4199239 1192.76562,40.0097656 C1191.8151,39.5996073 1190.98503,39.0429723 1190.27539,38.3398438 C1189.56575,37.6367152 1189.00912,36.8099006 1188.60547,35.859375 C1188.20182,34.9088494 1188,33.8932346 1188,32.8125 C1188,31.7317654 1188.20182,30.7161506 1188.60547,29.765625 C1189.00912,28.8150994 1189.56575,27.9882848 1190.27539,27.2851562 C1190.98503,26.5820277 1191.8151,26.0253927 1192.76562,25.6152344 C1193.71615,25.2050761 1194.73177,25 1195.8125,25 C1196.88021,25 1197.88932,25.2050761 1198.83984,25.6152344 C1199.79037,26.0253927 1200.62044,26.5820277 1201.33008,27.2851562 C1202.03972,27.9882848 1202.59961,28.8150994 1203.00977,29.765625 C1203.41992,30.7161506 1203.625,31.7317654 1203.625,32.8125 C1203.625,33.7630256 1203.46224,34.6647093 1203.13672,35.5175781 C1202.8112,36.370447 1202.36849,37.1354133 1201.80859,37.8125 L1207.88281,43.9257812 Z M1195.8125,39.3945312 C1196.71094,39.3945312 1197.56054,39.2220069 1198.36133,38.8769531 C1199.16211,38.5318993 1199.85872,38.0598988 1200.45117,37.4609375 C1201.04362,36.8619762 1201.51237,36.1653686 1201.85742,35.3710938 C1202.20248,34.5768189 1202.375,33.7239629 1202.375,32.8125 C1202.375,31.9010371 1202.20248,31.0481811 1201.85742,30.2539062 C1201.51237,29.4596314 1201.04362,28.7630238 1200.45117,28.1640625 C1199.85872,27.5651012 1199.16211,27.0931007 1198.36133,26.7480469 C1197.56054,26.4029931 1196.71094,26.2304688 1195.8125,26.2304688 C1194.90104,26.2304688 1194.04493,26.4029931 1193.24414,26.7480469 C1192.44336,27.0931007 1191.74675,27.5651012 1191.1543,28.1640625 C1190.56185,28.7630238 1190.0931,29.4596314 1189.74805,30.2539062 C1189.40299,31.0481811 1189.23047,31.9010371 1189.23047,32.8125 C1189.23047,33.7239629 1189.40299,34.5768189 1189.74805,35.3710938 C1190.0931,36.1653686 1190.56185,36.8619762 1191.1543,37.4609375 C1191.74675,38.0598988 1192.44336,38.5318993 1193.24414,38.8769531 C1194.04493,39.2220069 1194.90104,39.3945312 1195.8125,39.3945312 Z" id=""></path>
        </g>
    </g>
</svg>