<?xml version="1.0" encoding="UTF-8"?>
<svg width="36px" height="36px" viewBox="0 0 36 36" version="1.1" xmlns="http://www.w3.org/2000/svg" xmlns:xlink="http://www.w3.org/1999/xlink">
    <!-- Generator: Sketch 54.1 (76490) - https://sketchapp.com -->
    <title>Group 48</title>
    <desc>Created with Sketch.</desc>
    <g id="Page-2" stroke="none" stroke-width="1" fill="none" fill-rule="evenodd">
        <g id="01_Page_lists" transform="translate(-1224.000000, -155.000000)">
            <g id="Group-15" transform="translate(93.000000, 155.000000)">
                <g id="Group-13">
                    <g id="Group-34">
                        <g id="Group-48" transform="translate(1131.000000, 0.000000)">
                            <circle id="Oval-Copy-2" fill="#3296C1" cx="18" cy="18" r="18"></circle>
                            <path d="M18.17984,21.1904 C18.6790425,21.1904 19.1462379,21.0624013 19.58144,20.8064 C20.0166422,20.5503987 20.3622388,20.2080021 20.61824,19.7792 C20.8742413,19.3503979 21.00224,18.8864025 21.00224,18.3872 C21.00224,17.8879975 20.8742413,17.4208022 20.61824,16.9856 C20.3622388,16.5503978 20.0166422,16.2048013 19.58144,15.9488 C19.1462379,15.6927987 18.6790425,15.5648 18.17984,15.5648 C17.6806376,15.5648 17.2166422,15.6927987 16.78784,15.9488 C16.3590379,16.2048013 16.0166413,16.5503978 15.76064,16.9856 C15.5046388,17.4208022 15.37664,17.8879975 15.37664,18.3872 C15.37664,18.8864025 15.5046388,19.3503979 15.76064,19.7792 C16.0166413,20.2080021 16.3590379,20.5503987 16.78784,20.8064 C17.2166422,21.0624013 17.6806376,21.1904 18.17984,21.1904 Z M24.15104,19.1744 L25.82144,20.48 C25.8982404,20.5440003 25.94304,20.6271995 25.95584,20.7296 C25.9686401,20.8320005 25.9494403,20.9279996 25.89824,21.0176 L24.28544,23.7824 C24.2342398,23.8720004 24.1670405,23.9295999 24.08384,23.9552 C24.0006396,23.9808001 23.9078406,23.9744002 23.80544,23.936 L21.82784,23.1488 C21.3158375,23.5200019 20.861442,23.7823992 20.46464,23.936 L20.17664,26.0288 C20.1510399,26.1312005 20.1030404,26.2143997 20.03264,26.2784 C19.9622397,26.3424003 19.8822405,26.3744 19.79264,26.3744 L16.56704,26.3744 C16.4774396,26.3744 16.3974404,26.3424003 16.32704,26.2784 C16.2566397,26.2143997 16.2150401,26.1312005 16.20224,26.0288 L15.89504,23.936 C15.3574374,23.7183989 14.9094418,23.4560015 14.55104,23.1488 L12.55424,23.936 C12.349439,24.0256004 12.1894406,23.974401 12.07424,23.7824 L10.46144,21.0176 C10.4102398,20.9279996 10.39104,20.8320005 10.40384,20.7296 C10.4166401,20.6271995 10.4614397,20.5440003 10.53824,20.48 L12.22784,19.1744 C12.2022399,18.9951991 12.18944,18.7328017 12.18944,18.3872 C12.18944,18.0415983 12.2022399,17.7792009 12.22784,17.6 L10.53824,16.2944 C10.4614397,16.2303997 10.4166401,16.1472005 10.40384,16.0448 C10.39104,15.9423995 10.4102398,15.8464004 10.46144,15.7568 L12.07424,12.992 C12.1894406,12.799999 12.349439,12.7487996 12.55424,12.8384 L14.55104,13.6256 C15.0118424,13.2799983 15.4598379,13.0176009 15.89504,12.8384 L16.20224,10.7456 C16.2150401,10.6431995 16.2566397,10.5600003 16.32704,10.496 C16.3974404,10.4319997 16.4774396,10.4 16.56704,10.4 L19.79264,10.4 C19.8822405,10.4 19.9622397,10.4319997 20.03264,10.496 C20.1030404,10.5600003 20.1510399,10.6431995 20.17664,10.7456 L20.46464,12.8384 C20.9638425,13.030401 21.418238,13.2927983 21.82784,13.6256 L23.80544,12.8384 C23.9078406,12.7999998 24.0006396,12.7935999 24.08384,12.8192 C24.1670405,12.8448001 24.2342398,12.9023996 24.28544,12.992 L25.89824,15.7568 C25.9494403,15.8464004 25.9686401,15.9423995 25.95584,16.0448 C25.94304,16.1472005 25.8982404,16.2303997 25.82144,16.2944 L24.15104,17.6 C24.1766402,17.7792009 24.18944,18.0415983 24.18944,18.3872 C24.18944,18.7328017 24.1766402,18.9951991 24.15104,19.1744 Z" id="" fill="#FFFFFF" fill-rule="nonzero"></path>
                        </g>
                    </g>
                </g>
            </g>
        </g>
    </g>
</svg>