<?xml version="1.0" encoding="UTF-8"?>
<svg width="20px" height="20px" viewBox="0 0 20 20" version="1.1" xmlns="http://www.w3.org/2000/svg" xmlns:xlink="http://www.w3.org/1999/xlink">
    <!-- Generator: Sketch 54.1 (76490) - https://sketchapp.com -->
    <title>on_call_ic</title>
    <desc>Created with Sketch.</desc>
    <g id="Page-2" stroke="none" stroke-width="1" fill="none" fill-rule="evenodd">
        <g id="01_Page_lists" transform="translate(-488.000000, -93.000000)">
            <g id="Group-27" transform="translate(90.000000, 91.000000)">
                <g id="Group-6">
                    <g id="Group-35">
                        <g id="Group-39" transform="translate(398.000000, 0.000000)">
                            <g id="menu_icon" transform="translate(0.000000, 2.000000)">
                                <g id="work-schedule" transform="translate(10.000000, 10.000000) scale(-1, 1) translate(-10.000000, -10.000000) ">
                                    <g id="Group" fill="#012C61">
                                        <path d="M4.80929293,13.9544949 C1.93611111,12.955404 0,10.2389394 0,7.17969697 C0,3.2160101 3.2160101,0 7.17969697,0 C9.30191919,0 11.2707071,0.937070707 12.6420202,2.53035354 L12.1751515,2.93520202 C10.9246465,1.46924242 9.11585859,0.623585859 7.17974747,0.623585859 C3.55888889,0.623585859 0.623686869,3.55878788 0.623686869,7.17964646 C0.623686869,9.95813131 2.40308081,12.4558586 5.02484848,13.3602525 L4.80929293,13.9544949 Z" id="Path"></path>
                                        <rect id="Rectangle" x="1.25050505" y="6.86949495" width="1" height="1"></rect>
                                        <polygon id="Rectangle" transform="translate(4.365878, 12.050952) rotate(119.992901) translate(-4.365878, -12.050952) " points="4.05405555 11.7391288 4.67770102 11.7391288 4.67770102 12.3627742 4.05405555 12.3627742"></polygon>
                                        <polygon id="Rectangle" transform="translate(9.993471, 2.312664) rotate(119.992901) translate(-9.993471, -2.312664) " points="9.6816487 2.00084142 10.3052942 2.00084142 10.3052942 2.62448689 9.6816487 2.62448689"></polygon>
                                        <polygon id="Rectangle" transform="translate(4.373814, 2.312619) rotate(59.999272) translate(-4.373814, -2.312619) " points="4.06202762 2.00083257 4.68559976 2.00083257 4.68559976 2.62440471 4.06202762 2.62440471"></polygon>
                                        <polygon id="Rectangle" transform="translate(2.309957, 9.985784) rotate(149.999272) translate(-2.309957, -9.985784) " points="1.99817045 9.67399812 2.62174258 9.67399812 2.62174258 10.2975703 1.99817045 10.2975703"></polygon>
                                        <rect id="Rectangle" x="6.86949495" y="1.25050505" width="1" height="1"></rect>
                                        <polygon id="Rectangle" transform="translate(2.311446, 4.368444) rotate(30.000728) translate(-2.311446, -4.368444) " points="1.99966034 4.05665762 2.62323248 4.05665762 2.62323248 4.68022976 1.99966034 4.68022976"></polygon>
                                    </g>
                                    <path d="M7.17969697,6.39934343 L7.17969697,6.39934343 C6.74217172,6.39934343 6.39934343,6.74217172 6.39934343,7.17969697 L6.39934343,7.17969697 C6.39934343,7.61722222 6.74217172,7.96005051 7.17969697,7.96005051 L7.17969697,7.96005051 C7.61722222,7.96005051 7.96005051,7.61722222 7.96005051,7.17969697 L7.96005051,7.17969697 C7.96,6.74545455 7.61717172,6.39934343 7.17969697,6.39934343 Z" id="Path" fill="#FFFFFF"></path>
                                    <path d="M7.49313131,6.11853535 L7.49313131,3.08868687 L6.86954545,3.08868687 L6.86954545,6.11858586 C6.40267677,6.24267677 6.08919192,6.68015152 6.08919192,7.17969697 C6.08919192,7.27439394 6.08919192,7.36580808 6.12181818,7.42782828 L2.73735556,9.39393939 L3.0507899,9.92611111 L6.43525253,7.96 C6.62136364,8.14611111 6.90212121,8.27343434 7.18292929,8.27343434 C7.77717172,8.27343434 8.27671717,7.77388889 8.27671717,7.17964646 C8.27343434,6.68015152 7.96,6.27530303 7.49313131,6.11853535 Z M7.17969697,7.64984848 C6.93156566,7.64984848 6.71282828,7.43111111 6.71282828,7.1829798 C6.71282828,6.93484848 6.93156566,6.71611111 7.17969697,6.71611111 C7.42782828,6.71611111 7.64656566,6.93484848 7.64656566,7.1829798 C7.64656566,7.43106061 7.43106061,7.64984848 7.17969697,7.64984848 Z" id="Shape" fill="#012C61" fill-rule="nonzero"></path>
                                    <g id="Group" transform="translate(6.767677, 4.292929)" fill="#FFFFFF">
                                        <circle id="Oval" cx="6.50116162" cy="3.35691919" r="3.31070707"></circle>
                                        <path d="M12.0287879,8.03888889 L9.4690404,6.7590404 C8.65606061,7.47732323 7.62757576,7.88217172 6.47181818,7.88217172 C5.31606061,7.88217172 4.28757576,7.44464646 3.47459596,6.7590404 L0.914848485,8.03888889 C0.382676768,8.31969697 0.0398484848,8.85186869 0.0398484848,9.44282828 L0.0398484848,15.3752525 L12.9038384,15.3752525 L12.9038384,9.44606061 C12.9005051,8.85186869 12.5576768,8.31964646 12.0287879,8.03888889 Z" id="Path"></path>
                                    </g>
                                    <path d="M19.9816162,19.9816162 L6.52666667,19.9816162 L6.52666667,13.7389899 C6.52666667,13.0207071 6.93151515,12.3970707 7.55838384,12.0542424 L10.3074747,10.679697 L10.4641919,10.8037879 C11.2445455,11.4894444 12.2109596,11.864899 13.2426768,11.864899 C14.2743939,11.864899 15.2408586,11.4894444 16.0211616,10.8037879 L16.1778788,10.679697 L18.9269697,12.0542424 C19.5505556,12.3676768 19.9586869,13.0206566 19.9586869,13.7389899 L19.9586869,19.9816162 L19.9816162,19.9816162 L19.9816162,19.9816162 Z M7.15030303,19.3580303 L19.3580303,19.3580303 L19.3580303,13.7389899 C19.3580303,13.2721212 19.109899,12.834596 18.6723737,12.6158586 L16.2987374,11.4274242 C15.4237374,12.1130808 14.3626263,12.4885354 13.2688384,12.4885354 C12.1750505,12.4885354 11.084596,12.1130808 10.2389394,11.3947475 L7.86858586,12.5831818 C7.43106061,12.8019192 7.18292929,13.2394444 7.18292929,13.7063131 L7.18292929,19.3579798 L7.15030303,19.3580303 L7.15030303,19.3580303 Z" id="Shape" fill="#012C61" fill-rule="nonzero"></path>
                                    <path d="M8.0710101,18.4503535 L8.0710101,13.7389899 C8.0710101,13.614899 8.1330303,13.4908586 8.25712121,13.4255556 L10.1312121,12.4884848 C11.0682828,13.0827273 12.1293939,13.4255556 13.2525253,13.4255556 C14.3756566,13.4255556 15.4367677,13.1121212 16.3738384,12.4884848 L18.2479293,13.4255556 C18.3720202,13.4875758 18.4340404,13.6116667 18.4340404,13.7389899 L18.4340404,18.4535859 L8.0710101,18.4535859 L8.0710101,18.4503535 Z" id="Path" fill="#012C61"></path>
                                    <polyline id="Path" fill="#FFFFFF" points="16.2367172 6.21323232 14.3920202 7.05560606 12.3938384 5.83777778 10.114899 6.65075758"></polyline>
                                    <path d="M13.2688384,4.0289899 C11.2706566,4.0289899 9.6479798,5.65166667 9.6479798,7.64984848 C9.6479798,9.6480303 11.2706566,11.2707071 13.2688384,11.2707071 C15.2670202,11.2707071 16.889697,9.6480303 16.889697,7.64984848 C16.889697,5.65166667 15.2670202,4.0289899 13.2688384,4.0289899 Z M13.2688384,4.65257576 C14.3299495,4.65257576 15.2670202,5.21414141 15.7991919,6.05651515 L14.4246465,6.71277778 L12.4264646,5.49494949 L10.7090909,6.08919192 C11.2413131,5.24353535 12.175101,4.65257576 13.2688384,4.65257576 Z M13.2688384,10.6470707 C11.6134848,10.6470707 10.2716162,9.30515152 10.2716162,7.64984848 C10.2716162,7.3690404 10.3042424,7.11767677 10.3663131,6.86949495 L12.3644949,6.18383838 L14.395303,7.43434343 L16.0800505,6.6539899 C16.2041414,6.96742424 16.2661616,7.31025253 16.2661616,7.68570707 C16.2661111,9.30515152 14.9241919,10.6470707 13.2688384,10.6470707 Z" id="Shape" fill="#012C61" fill-rule="nonzero"></path>
                                </g>
                            </g>
                        </g>
                    </g>
                </g>
            </g>
        </g>
    </g>
</svg>