<svg xmlns="http://www.w3.org/2000/svg" width="19" height="13" viewBox="0 0 19 13">
  <path fill="#3296C1" d="M37.18,3.76 C37.6200022,3.76 38.0333314,3.8733322 38.42,4.1 C38.8066686,4.3266678 39.1133322,4.6333314 39.34,5.02 C39.5666678,5.4066686 39.68,5.8199978 39.68,6.26 C39.68,6.7000022 39.5666678,7.1133314 39.34,7.5 C39.1133322,7.8866686 38.8066686,8.1933322 38.42,8.42 C38.0333314,8.6466678 37.6200022,8.76 37.18,8.76 C36.7399978,8.76 36.3266686,8.6466678 35.94,8.42 C35.5533314,8.1933322 35.2466678,7.8866686 35.02,7.5 C34.7933322,7.1133314 34.68,6.7000022 34.68,6.26 C34.68,5.8199978 34.7933322,5.4066686 35.02,5.02 C35.2466678,4.6333314 35.5533314,4.3266678 35.94,4.1 C36.3266686,3.8733322 36.7399978,3.76 37.18,3.76 Z M37.18,10.44 C37.9400038,10.44 38.6399968,10.2533352 39.28,9.88 C39.9200032,9.5066648 40.4266648,9.0000032 40.8,8.36 C41.1733352,7.7199968 41.36,7.0200038 41.36,6.26 C41.36,5.4999962 41.1733352,4.8000032 40.8,4.16 C40.4266648,3.5199968 39.9200032,3.0133352 39.28,2.64 C38.6399968,2.2666648 37.9400038,2.08 37.18,2.08 C36.4199962,2.08 35.7200032,2.2666648 35.08,2.64 C34.4399968,3.0133352 33.9333352,3.5199968 33.56,4.16 C33.1866648,4.8000032 33,5.4999962 33,6.26 C33,7.0200038 33.1866648,7.7199968 33.56,8.36 C33.9333352,9.0000032 34.4399968,9.5066648 35.08,9.88 C35.7200032,10.2533352 36.4199962,10.44 37.18,10.44 Z M37.18,0 C38.5533402,0 39.8599938,0.266664 41.1,0.8 C42.300006,1.3200026 43.3566621,2.0533286 44.27,3 C45.1833379,3.9466714 45.8799976,5.0333272 46.36,6.26 C45.8799976,7.4866728 45.1833379,8.5699953 44.27,9.51 C43.3566621,10.4500047 42.300006,11.1799974 41.1,11.7 C39.8599938,12.233336 38.5533402,12.5 37.18,12.5 C35.8066598,12.5 34.5000062,12.233336 33.26,11.7 C32.059994,11.1799974 31.0033379,10.4500047 30.09,9.51 C29.1766621,8.5699953 28.4800024,7.4866728 28,6.26 C28.4800024,5.0333272 29.1766621,3.9466714 30.09,3 C31.0033379,2.0533286 32.059994,1.3200026 33.26,0.8 C34.5000062,0.266664 35.8066598,0 37.18,0 Z" transform="translate(-28)"/>
</svg>
