<svg xmlns="http://www.w3.org/2000/svg" width="20" height="14" viewBox="0 0 20 14">
  <path fill="#FFF" d="M1089,239.5 C1089.44,239.5 1089.85333,239.613332 1090.24,239.84 C1090.62667,240.066668 1090.93333,240.373331 1091.16,240.76 C1091.38667,241.146669 1091.5,241.559998 1091.5,242 C1091.5,242.440002 1091.38667,242.853331 1091.16,243.24 C1090.93333,243.626669 1090.62667,243.933332 1090.24,244.16 C1089.85333,244.386668 1089.44,244.5 1089,244.5 C1088.56,244.5 1088.14667,244.386668 1087.76,244.16 C1087.37333,243.933332 1087.06667,243.626669 1086.84,243.24 C1086.61333,242.853331 1086.5,242.440002 1086.5,242 C1086.5,241.559998 1086.61333,241.146669 1086.84,240.76 C1087.06667,240.373331 1087.37333,240.066668 1087.76,239.84 C1088.14667,239.613332 1088.56,239.5 1089,239.5 Z M1089,246.18 C1089.76,246.18 1090.46,245.993335 1091.1,245.62 C1091.74,245.246665 1092.24666,244.740003 1092.62,244.1 C1092.99334,243.459997 1093.18,242.760004 1093.18,242 C1093.18,241.239996 1092.99334,240.540003 1092.62,239.9 C1092.24666,239.259997 1091.74,238.753335 1091.1,238.38 C1090.46,238.006665 1089.76,237.82 1089,237.82 C1088.24,237.82 1087.54,238.006665 1086.9,238.38 C1086.26,238.753335 1085.75334,239.259997 1085.38,239.9 C1085.00666,240.540003 1084.82,241.239996 1084.82,242 C1084.82,242.760004 1085.00666,243.459997 1085.38,244.1 C1085.75334,244.740003 1086.26,245.246665 1086.9,245.62 C1087.54,245.993335 1088.24,246.18 1089,246.18 Z M1089,235.74 C1090.37334,235.74 1091.67999,236.006664 1092.92,236.54 C1094.12001,237.060003 1095.17666,237.793329 1096.09,238.74 C1097.00334,239.686671 1097.7,240.773327 1098.18,242 C1097.7,243.226673 1097.00334,244.309995 1096.09,245.25 C1095.17666,246.190005 1094.12001,246.919997 1092.92,247.44 C1091.67999,247.973336 1090.37334,248.24 1089,248.24 C1087.62666,248.24 1086.32001,247.973336 1085.08,247.44 C1083.87999,246.919997 1082.82334,246.190005 1081.91,245.25 C1080.99666,244.309995 1080.3,243.226673 1079.82,242 C1080.3,240.773327 1080.99666,239.686671 1081.91,238.74 C1082.82334,237.793329 1083.87999,237.060003 1085.08,236.54 C1086.32001,236.006664 1087.62666,235.74 1089,235.74 Z" transform="translate(-1079 -235)"/>
</svg>
